<?xml version="1.0" encoding="UTF-8"?>
<svg width="48px" height="48px" viewBox="0 0 48 48" version="1.1" xmlns="http://www.w3.org/2000/svg" xmlns:xlink="http://www.w3.org/1999/xlink">
    <!-- Generator: Sketch 64 (93537) - https://sketch.com -->
    <title>Shortness-breath-blue</title>
    <desc>Created with Sketch.</desc>
    <g id="Shortness-breath-blue" stroke="none" stroke-width="1" fill="none" fill-rule="evenodd">
        <path d="M42.9341078,7.53703537 L43.2975748,7.85190383 L43.4032973,7.95739739 C47.4225693,12.4844571 48.8310418,17.2618017 47.5301802,22.174649 C46.3388941,26.6736727 44.6018909,30.0757488 42.28849,32.3642481 L42.0667061,32.5756194 L41.9405908,32.7423825 C41.0391561,33.9953169 40.7949158,35.5519483 41.236747,37.500187 L41.3218449,37.8480769 C42.0246419,40.530219 42.3792351,42.8215685 42.3792351,44.7333202 C42.3792351,45.4162196 41.8256357,45.9700549 41.1427363,45.9700549 C40.4598369,45.9700549 39.9062375,45.4162196 39.9062375,44.7333202 C39.9062375,43.0577008 39.5828241,40.9678326 38.9296081,38.4749105 C38.1912881,35.6571991 38.5279257,33.2099715 39.9748025,31.2406362 L40.1789888,30.9750627 L40.3020019,30.8430424 C42.3826894,28.9137205 44.0068314,25.8195526 45.1395689,21.5416445 C46.1809335,17.6088159 45.1226386,13.7859442 41.8751014,9.96867538 L41.6042556,9.65711394 L41.2989182,9.39286567 C36.955332,5.72183618 32.1030095,4.63606563 26.6107234,6.10612069 L26.1515487,6.23454091 C22.3615643,7.33975188 20.0225341,9.61712236 18.8292207,12.7143959 C18.0427583,14.7556778 17.8356822,17.0772416 18.0404276,18.5476152 L18.0836025,18.8130592 C18.2823009,19.8700803 17.9618254,21.2278547 17.1615564,23.4701859 L16.2249315,25.9950758 C16.097741,26.3395134 15.9940602,26.628546 15.9077165,26.8812869 L15.757621,27.33992 L15.673639,27.6184957 L15.6957619,27.6239125 C16.1663926,27.7233567 16.8348591,27.8152206 17.6926656,27.8965746 L18.0232018,27.926584 C18.5612173,27.9733586 19.0004896,28.3621292 19.1203531,28.8775812 L19.1449581,29.021138 L19.5735563,32.8587776 L20.9961099,35.6585468 C21.0805491,35.8247908 21.1260239,36.0074191 21.1298972,36.1926521 L21.1249607,36.33185 C20.952197,38.2085925 21.3276798,38.8428258 22.3041,38.9110101 C23.5078569,38.9950696 25.7279919,38.7491657 28.8972755,38.1638893 C29.5151805,38.0497799 30.1116799,38.4165639 30.2989861,39.0010176 L30.3347703,39.1396357 L31.3948902,44.4931278 C31.5275448,45.1630192 31.0920283,45.8136112 30.422137,45.9462657 C29.800095,46.069445 29.1946938,45.7027216 29.0051709,45.1133516 L28.9689991,44.9735125 L28.1437295,40.8082285 L27.8991481,40.8510685 C25.4431116,41.2619746 23.6079071,41.4434393 22.3591131,41.3906454 L22.1318278,41.3780001 C19.716739,41.2093523 18.5334822,39.4630002 18.625194,36.6927416 L18.6350537,36.4718271 L17.2672429,33.778042 C17.2224882,33.689929 17.1885396,33.5969295 17.1660029,33.5010684 L17.1408322,33.3553837 L16.7976165,30.2918061 L16.546026,30.2645907 C14.8371755,30.0649804 13.9354617,29.7980128 13.4605482,29.2265035 L13.3852826,29.1283914 C12.9101362,28.4565932 13.0115779,27.8098887 13.4343392,26.4842077 L13.5643784,26.0909508 C13.6116081,25.9525193 13.6630182,25.8058032 13.7194998,25.6479858 L14.700168,23.0056057 C15.4205993,21.0282957 15.7442907,19.7546495 15.6531733,19.2699303 C15.2994491,17.3882142 15.5149548,14.4380084 16.5215725,11.8253083 C17.9833956,8.03111144 20.9020979,5.18934969 25.4592255,3.86042933 C31.9544018,1.96634765 37.8273015,3.20263536 42.9341078,7.53703537 Z M7.41209284,35.8785651 C7.54795057,36.4979616 7.19366806,37.1107263 6.60829167,37.3122465 L6.46922046,37.3512668 L3.20159761,38.0679835 C2.75208806,38.1665785 2.46761555,38.6109049 2.56621047,39.0604145 L2.58100474,39.1179722 C2.76655145,39.7460362 3.33526208,40.1744791 3.9778245,40.1912321 L4.13982468,40.1867208 L4.39915618,40.1655305 C5.07978722,40.1099155 5.67663257,40.6165911 5.73224759,41.2972221 C5.78389011,41.9292367 5.35070042,42.4890074 4.74360139,42.6102786 L4.60055598,42.6303136 L4.34122448,42.6515038 C2.46690563,42.8046562 0.742142464,41.6221346 0.209338112,39.8186252 C0.187061505,39.7432203 0.167481813,39.6670447 0.150636386,39.5902438 C-0.225528579,37.8752493 0.803595631,36.179269 2.4689243,35.7035603 L2.6717683,35.6524095 L5.93939115,34.9356927 C6.60643352,34.7893844 7.26578452,35.2115228 7.41209284,35.8785651 Z M9.32561285,34.0731521 C10.0085123,34.0731521 10.5621117,34.6267514 10.5621117,35.3096509 C10.5621117,35.9437718 10.0847734,36.4664044 9.46981473,36.5378309 L9.32561285,36.5461497 L9.24019087,36.5461497 C8.55729144,36.5461497 8.00369206,35.9925503 8.00369206,35.3096509 C8.00369206,34.67553 8.4810303,34.1528974 9.09598899,34.0814709 L9.24019087,34.0731521 L9.32561285,34.0731521 Z M15.5648306,33.6328237 C15.7394188,34.2930287 15.3457487,34.9697623 14.6855437,35.1443505 L12.7972333,35.6437058 C12.1370284,35.818294 11.4602948,35.4246239 11.2857065,34.7644189 C11.1111183,34.104214 11.5047884,33.4274804 12.1649933,33.2528921 L14.0533038,32.7535369 C14.7135087,32.5789486 15.3902423,32.9726188 15.5648306,33.6328237 Z M4.4786199,27.5795284 C4.68850558,28.1779073 4.41105685,28.8290746 3.85440131,29.1000184 L3.72108074,29.1555973 L3.47555078,29.2417186 C2.80606668,29.476545 2.39308321,30.1487618 2.48619711,30.8520982 L2.4960927,30.9106972 C2.58042094,31.3204695 2.95222138,31.5975621 3.35777936,31.5748632 L3.48020576,31.5588927 L11.0272698,30.0057605 C11.6961523,29.8681092 12.349977,30.2987572 12.4876283,30.9676397 C12.6154473,31.5887448 12.2532532,32.1968666 11.6653143,32.3907835 L11.5257491,32.4279982 L3.9786851,33.9811305 C2.19017058,34.3491941 0.441918582,33.1976911 0.0738549808,31.4091765 C0.0580062962,31.3321638 0.044909837,31.2546101 0.0345905847,31.1766636 C-0.20193795,29.3900438 0.793558994,27.6791806 2.43878903,26.9918764 L2.65702108,26.9081106 L2.90255104,26.8219892 C3.5469591,26.5959585 4.25258916,26.9351203 4.4786199,27.5795284 Z" id="Path-4-Copy-7" fill="#4484FF" fill-rule="nonzero"></path>
    </g>
</svg>