<?xml version="1.0" encoding="UTF-8"?>
<svg width="48px" height="48px" viewBox="0 0 48 48" version="1.1" xmlns="http://www.w3.org/2000/svg" xmlns:xlink="http://www.w3.org/1999/xlink">
    <!-- Generator: Sketch 64 (93537) - https://sketch.com -->
    <title>fever-blue</title>
    <desc>Created with Sketch.</desc>
    <g id="fever-blue" stroke="none" stroke-width="1" fill="none" fill-rule="evenodd">
        <path d="M24,4 C26.6488697,4 28.7962029,6.02124104 28.7962029,8.51451506 L28.7962029,8.51451506 L28.7971862,28.3021863 L29.0188779,28.4367976 C31.4007258,29.9367763 32.9170161,32.4327788 33.0222845,35.1941189 L33.0222845,35.1941189 L33.0281466,35.5019892 C33.0281466,40.195311 28.9861077,44 24,44 C19.0138923,44 14.9718534,40.195311 14.9718534,35.5019892 C14.9718534,32.6185909 16.5115323,29.991543 18.9822108,28.4361111 L18.9822108,28.4361111 L19.2036519,28.301124 L19.2037971,8.51456822 C19.2037971,6.09457419 21.2266741,4.11930491 23.7676196,4.00520602 L23.7676196,4.00520602 Z M24,6.12450269 C22.5976572,6.12450269 21.4608338,7.19457148 21.4608338,8.51456606 L21.4608338,8.51456606 L21.4598534,10.753 L24.1759037,10.7535569 C24.7991671,10.7535569 25.304422,11.2291431 25.304422,11.8158083 C25.304422,12.3605688 24.8687685,12.809552 24.3075127,12.8709131 L24.1759037,12.8780596 L21.4598534,12.878 L21.4598534,15.33 L24,15.3304859 C24.6232635,15.3304859 25.1285183,15.806072 25.1285183,16.3927372 C25.1285183,16.9374978 24.6928649,17.386481 24.1316091,17.447842 L24,17.4549886 L21.4598534,17.454 L21.4598534,19.907 L24,19.9074148 C24.6232635,19.9074148 25.1285183,20.383001 25.1285183,20.9696662 C25.1285183,21.5144267 24.6928649,21.9634099 24.1316091,22.024771 L24,22.0319175 L21.4598534,22.031 L21.4598534,24.484 L24,24.4843438 C24.6232635,24.4843438 25.1285183,24.9599299 25.1285183,25.5465951 C25.1285183,26.0913557 24.6928649,26.5403389 24.1316091,26.6016999 L24,26.6088465 L21.4608534,26.608 L21.4608778,28.914515 C21.4608786,29.2653971 21.2771386,29.5905577 20.9755422,29.7873825 L20.8570478,29.8549756 C18.643983,30.9489149 17.2288901,33.1069307 17.2288901,35.5019892 C17.2288901,39.0219805 20.2604192,41.8754973 24,41.8754973 C27.7395808,41.8754973 30.7711099,39.0219805 30.7711099,35.5019892 C30.7711099,33.1072982 29.3564543,30.9495612 27.1439192,29.8554537 C26.7727426,29.6719054 26.5402718,29.309789 26.5402508,28.9151284 L26.5402508,28.9151284 L26.5391662,8.51456822 C26.5391662,7.19457148 25.4023428,6.12450269 24,6.12450269 Z" id="Combined-Shape-Copy" fill="#4484FF" fill-rule="nonzero"></path>
    </g>
</svg>