<?xml version="1.0" encoding="UTF-8"?>
<svg width="200px" height="93px" viewBox="0 0 200 93" version="1.1" xmlns="http://www.w3.org/2000/svg" xmlns:xlink="http://www.w3.org/1999/xlink">
    <!-- Generator: Sketch 64 (93537) - https://sketch.com -->
    <title>logo-1 white</title>
    <desc>Created with Sketch.</desc>
    <defs>
        <polygon id="path-1" points="0 0.57437459 26.2736627 0.57437459 26.2736627 32.3593746 0 32.3593746"></polygon>
        <polygon id="path-3" points="0 78.0395902 162.853033 78.0395902 162.853033 0.668032787 0 0.668032787"></polygon>
    </defs>
    <g id="logo-1-white" stroke="none" stroke-width="1" fill="none" fill-rule="evenodd">
        <g id="Group-13" transform="translate(18.000000, 7.000000)">
            <g id="Group-3" transform="translate(0.000000, 0.547787)">
                <mask id="mask-2" fill="white">
                    <use xlink:href="#path-1"></use>
                </mask>
                <g id="Clip-2"></g>
                <path d="M23.1606299,24.6769975 C23.4746053,24.6769975 23.7551791,24.7972434 23.9956709,25.0444156 L26.2736627,27.5161369 C25.0110807,29.0793336 23.4612447,30.2751123 21.6174742,31.1101533 C19.7737037,31.9385139 17.5625152,32.3593746 14.9839086,32.3593746 C12.6725152,32.3593746 10.6016135,31.9652352 8.75784303,31.1769566 C6.92075287,30.3819975 5.34419549,29.2864238 4.04153156,27.8835549 C2.73886762,26.4806861 1.73681844,24.8039238 1.04206434,22.853268 C0.347310246,20.9026123 -6.68032787e-05,18.7715877 -6.68032787e-05,16.4668746 C-6.68032787e-05,14.1287598 0.374031557,11.9910549 1.11554795,10.0470795 C1.85706434,8.1031041 2.91255615,6.43302213 4.2686627,5.02347295 C5.62476926,3.6206041 7.24140861,2.52503033 9.11858074,1.74343197 C10.9957529,0.961833607 13.0733348,0.57437459 15.358007,0.57437459 C17.6226381,0.57437459 19.6334168,0.948472951 21.390343,1.68998934 C23.1472693,2.43818607 24.6436627,3.41351393 25.872843,4.61597295 L23.935548,7.30146475 C23.8219824,7.47515328 23.6750152,7.62212049 23.4946463,7.75572705 C23.3142775,7.88265328 23.0671053,7.94945656 22.7531299,7.94945656 C22.5393594,7.94945656 22.3189086,7.88933361 22.0850971,7.7690877 C21.857966,7.6488418 21.6041135,7.49519426 21.3302201,7.31482541 C21.0563266,7.13445656 20.7423512,6.94072705 20.3816135,6.72695656 C20.0275561,6.50650574 19.6133758,6.31277623 19.1390725,6.13240738 C18.6647693,5.95203852 18.1169824,5.80507131 17.4957119,5.67814508 C16.8744414,5.55789918 16.152966,5.49777623 15.3312857,5.49777623 C13.9417775,5.49777623 12.6658348,5.74494836 11.5168184,6.23929262 C10.3611217,6.73363689 9.3724332,7.44843197 8.53739221,8.3903582 C7.70903156,9.33228443 7.06103975,10.4746205 6.60009713,11.830727 C6.13915451,13.1868336 5.91202336,14.7299893 5.91202336,16.4668746 C5.91202336,18.2171205 6.15919549,19.7736369 6.65353975,21.1364238 C7.14788402,22.4992107 7.8159168,23.648227 8.66431844,24.5767926 C9.51272008,25.5120385 10.5080889,26.2201533 11.6571053,26.7144975 C12.8061217,27.2088418 14.035302,27.4560139 15.358007,27.4560139 C16.1462857,27.4560139 16.8610807,27.415932 17.4957119,27.3290877 C18.130343,27.2422434 18.7248922,27.1086369 19.2593184,26.9215877 C19.800425,26.7345385 20.3081299,26.4940467 20.7891135,26.2001123 C21.2700971,25.9061779 21.7444004,25.5454402 22.2187037,25.1112189 C22.3589906,24.9842926 22.5126381,24.8774074 22.672966,24.7972434 C22.8266135,24.7170795 22.9869414,24.6769975 23.1606299,24.6769975" id="Fill-1" fill="#4484FF" mask="url(#mask-2)"></path>
            </g>
            <mask id="mask-4" fill="white">
                <use xlink:href="#path-3"></use>
            </mask>
            <g id="Clip-5"></g>
            <path d="M29.807623,32.559918 L35.1385246,32.559918 L35.1385246,10.4947951 L29.807623,10.4947951 L29.807623,32.559918 Z M35.8733607,4.06831967 C35.8733607,4.5292623 35.7798361,4.95680328 35.5927869,5.35762295 C35.4057377,5.75844262 35.1585656,6.10581967 34.8512705,6.41311475 C34.5439754,6.71372951 34.1832377,6.95422131 33.762377,7.13459016 C33.3481967,7.31495902 32.9006148,7.40180328 32.4263115,7.40180328 C31.9653689,7.40180328 31.5311475,7.31495902 31.1236475,7.13459016 C30.7228279,6.94754098 30.3687705,6.71372951 30.0614754,6.41311475 C29.7608607,6.1125 29.5203689,5.75844262 29.34,5.35762295 C29.1596311,4.95680328 29.0727869,4.5292623 29.0727869,4.06831967 C29.0727869,3.59401639 29.1596311,3.15311475 29.34,2.7322541 C29.5203689,2.31139344 29.7608607,1.95733607 30.0614754,1.65672131 C30.3620902,1.35610656 30.7161475,1.11561475 31.1236475,0.935245902 C31.5378279,0.754877049 31.9720492,0.668032787 32.4329918,0.668032787 C32.9072951,0.668032787 33.3481967,0.754877049 33.7690574,0.935245902 C34.1832377,1.11561475 34.5439754,1.35610656 34.8579508,1.65672131 C35.1652459,1.95733607 35.412418,2.31807377 35.5994672,2.7322541 C35.7865164,3.14643443 35.8733607,3.59401639 35.8733607,4.06831967 L35.8733607,4.06831967 Z" id="Fill-4" fill="#4484FF" mask="url(#mask-4)"></path>
            <path d="M47.4570492,32.9006148 C45.5331148,32.9006148 44.0634426,32.3595082 43.0413525,31.2772951 C42.012582,30.195082 41.504877,28.6986885 41.504877,26.7947951 L41.504877,14.4762705 L39.2469262,14.4762705 C38.9596721,14.4762705 38.7191803,14.3827459 38.5187705,14.1956967 C38.3183607,14.0086475 38.2181557,13.7280738 38.2181557,13.3606557 L38.2181557,11.2496721 L41.7654098,10.6684836 L42.8810246,4.6495082 C42.9545082,4.3622541 43.0881148,4.14180328 43.2885246,3.98147541 C43.4889344,3.82114754 43.7494672,3.74766393 44.0634426,3.74766393 L46.8157377,3.74766393 L46.8157377,10.6885246 L52.7077869,10.6885246 L52.7077869,14.4762705 L46.8157377,14.4762705 L46.8157377,26.4340574 C46.8157377,27.1221311 46.9827459,27.6632377 47.3234426,28.0440164 C47.657459,28.4314754 48.125082,28.6252049 48.7129508,28.6252049 C49.0402869,28.6252049 49.3208607,28.585123 49.5413115,28.504959 C49.7617623,28.4247951 49.9554918,28.3446311 50.1225,28.2577869 C50.2895082,28.1709426 50.4364754,28.0907787 50.5634016,28.0106148 C50.6903279,27.9304508 50.8239344,27.8903689 50.9508607,27.8903689 C51.1111885,27.8903689 51.2381148,27.9304508 51.3383197,28.0106148 C51.4385246,28.0907787 51.5454098,28.2110246 51.6589754,28.3646721 L53.2488934,30.9432787 C52.4739754,31.5912705 51.5854918,32.0722541 50.5834426,32.4062705 C49.5747131,32.7402869 48.532582,32.9006148 47.4570492,32.9006148" id="Fill-6" fill="#4484FF" mask="url(#mask-4)"></path>
            <path d="M77.0309275,10.4947951 L65.0063373,38.6256557 C64.8460094,38.9997541 64.6455996,39.2803279 64.3917471,39.4740574 C64.1378947,39.6677869 63.757116,39.7613115 63.2427307,39.7613115 L59.2879766,39.7613115 L63.4164193,30.9031967 L54.4915012,10.4947951 L59.1610504,10.4947951 C59.5752307,10.4947951 59.9025668,10.595 60.1430586,10.7954098 C60.3768701,10.9958197 60.5572389,11.2229508 60.6708045,11.4834836 L65.3603947,22.9268852 C65.5207225,23.3143443 65.6476488,23.7018033 65.7612143,24.0892623 C65.8680996,24.4767213 65.9749848,24.8708607 66.0751898,25.2716803 C66.202116,24.8708607 66.3357225,24.470041 66.4626488,24.0759016 C66.589575,23.6817623 66.7365422,23.2943033 66.8901898,22.9001639 L71.3192471,11.4834836 C71.4328127,11.1962295 71.6265422,10.962418 71.887075,10.7753689 C72.1542881,10.5883197 72.4482225,10.4947951 72.7822389,10.4947951 L77.0309275,10.4947951 Z" id="Fill-7" fill="#4484FF" mask="url(#mask-4)"></path>
            <path d="M58.3660914,66.2892275 L54.5783455,55.9413996 C54.3912963,55.4797889 54.1975668,54.9393504 53.997157,54.3047193 C53.7967471,53.6761004 53.5963373,52.995375 53.3959275,52.2605389 C53.2088783,52.995375 53.0151488,53.6761004 52.8147389,54.3107316 C52.6143291,54.9460307 52.4205996,55.5065102 52.2335504,55.9808135 L48.4725258,66.2818791 L58.3660914,66.2818791 L58.3660914,66.2892275 Z M68.5803127,78.0325758 L64.1111734,78.0325758 C63.6101488,78.0325758 63.2026488,77.9063176 62.881993,77.6591455 C62.5680176,77.405293 62.3275258,77.097998 62.1738783,76.7232316 L59.8491242,70.3769201 L46.969452,70.3769201 L44.644698,76.7232316 C44.5311324,77.0505676 44.3106816,77.3518504 43.9766652,77.6257439 C43.6426488,77.8996373 43.2351488,78.0325758 42.7541652,78.0325758 L38.2382635,78.0325758 L50.4766242,46.9356496 L56.3686734,46.9356496 L68.5803127,78.0325758 Z" id="Fill-8" fill="#4484FF" mask="url(#mask-4)"></path>
            <path d="M77.2044156,78.0326426 C75.2804811,78.0326426 73.810809,77.4915361 72.7887189,76.409323 C71.7599484,75.3271098 71.2522434,73.8307164 71.2522434,71.926823 L71.2522434,59.601618 L68.9942926,59.601618 C68.7070385,59.601618 68.4665467,59.5087615 68.2661369,59.3210443 C68.065727,59.1339951 67.9655221,58.8534213 67.9655221,58.4860033 L67.9655221,56.3750197 L71.5127762,55.7938311 L72.628391,49.7748557 C72.7018746,49.4882697 72.8354811,49.2671508 73.035891,49.106823 C73.2363008,48.9464951 73.4968336,48.8736795 73.810809,48.8736795 L76.5631041,48.8736795 L76.5631041,55.8205525 L82.4551533,55.8205525 L82.4551533,59.6089664 L76.5631041,59.6089664 L76.5631041,71.5660852 C76.5631041,72.254827 76.7301123,72.7952656 77.070809,73.1760443 C77.4048254,73.5641713 77.8724484,73.7579008 78.4603172,73.7579008 C78.7876533,73.7579008 79.068227,73.7171508 79.2886779,73.6376549 C79.5091287,73.557491 79.7028582,73.477327 79.8698664,73.3904828 C80.0368746,73.3036385 80.1838418,73.2234746 80.310768,73.1433107 C80.4376943,73.0631467 80.5713008,73.0223967 80.698227,73.0223967 C80.8585549,73.0223967 80.9854811,73.0631467 81.0856861,73.1433107 C81.185891,73.2234746 81.2927762,73.3430525 81.4063418,73.4967 L82.9962598,76.0753066 C82.2213418,76.7232984 81.3328582,77.20495 80.330809,77.5389664 C79.3153992,77.8656344 78.2799484,78.0326426 77.2044156,78.0326426" id="Fill-9" fill="#4484FF" mask="url(#mask-4)"></path>
            <path d="M111.708242,78.0326426 L111.708242,55.9681877 L114.954882,55.9681877 C115.643623,55.9681877 116.097218,56.2881754 116.311656,56.9368352 L116.651685,58.5728475 C117.039144,58.1453066 117.446644,57.7518352 117.868173,57.3910975 C118.289033,57.0303598 118.742627,56.7230648 119.223611,56.4692123 C119.705263,56.2080115 120.21898,56.0076016 120.773447,55.8546221 C121.327914,55.7003066 121.929144,55.626823 122.590496,55.626823 C123.980005,55.626823 125.122341,56.0015893 126.017505,56.7557984 C126.913336,57.5106754 127.581369,58.5067123 128.028951,59.7559336 C128.37566,59.0277779 128.803201,58.399159 129.317586,57.8714131 C129.831972,57.3503475 130.3998,56.9228066 131.01439,56.5887902 C131.62898,56.2614541 132.283652,56.014282 132.978406,55.8546221 C133.67316,55.6942943 134.375263,55.6201426 135.076029,55.6201426 C136.291849,55.6201426 137.374062,55.8071918 138.322668,56.1812902 C139.271943,56.5560566 140.066234,57.0964951 140.707545,57.8179705 C141.355537,58.5334336 141.843201,59.4078885 142.183898,60.4440074 C142.517914,61.4721098 142.691603,62.6612082 142.691603,63.9905934 L142.691603,78.0326426 L137.38141,78.0326426 L137.38141,63.9905934 C137.38141,62.5883926 137.074115,61.5255525 136.458857,60.8174377 C135.844267,60.109991 134.93641,59.7559336 133.746644,59.7559336 C133.198857,59.7559336 132.697832,59.8487902 132.230877,60.0365074 C131.763255,60.2235566 131.355086,60.4901016 131.001029,60.844827 C130.64764,61.1988844 130.373078,61.639118 130.173336,62.1668639 C129.972259,62.6946098 129.872054,63.3092 129.872054,63.9972738 L129.872054,78.039991 L124.541152,78.039991 L124.541152,63.9905934 C124.541152,62.514909 124.241205,61.4387082 123.645988,60.7639951 C123.051439,60.08995 122.183664,59.7559336 121.03398,59.7559336 C120.259062,59.7559336 119.538255,59.9496631 118.870222,60.3230934 C118.202189,60.7045402 117.58025,61.2256057 117.012423,61.8796098 L117.012423,78.0326426 L111.708242,78.0326426 Z" id="Fill-10" fill="#4484FF" mask="url(#mask-4)"></path>
            <path d="M161.410149,59.9226746 C161.269862,60.1498057 161.116214,60.3168139 160.955886,60.4036582 C160.795559,60.4965148 160.595149,60.5439451 160.354657,60.5439451 C160.094124,60.5439451 159.820231,60.4697934 159.526296,60.3295066 C159.232362,60.1892197 158.890997,60.0222115 158.503538,59.849191 C158.116747,59.6688221 157.675845,59.5084943 157.181501,59.3682074 C156.687157,59.2279205 156.099288,59.1544369 155.431255,59.1544369 C154.381776,59.1544369 153.560764,59.3748877 152.966214,59.8224697 C152.371665,60.2700516 152.07105,60.8512402 152.07105,61.5660352 C152.07105,62.0403385 152.224698,62.4344779 152.531993,62.7618139 C152.839288,63.0818016 153.246788,63.3697238 153.761173,63.6102156 C154.268878,63.8573877 154.850067,64.0711582 155.491378,64.2648877 C156.13937,64.4586172 156.794042,64.6717197 157.462075,64.8995189 C158.130108,65.12665 158.78478,65.3931951 159.432772,65.6811172 C160.080764,65.9750516 160.655272,66.34915 161.162977,66.796732 C161.670682,67.2509943 162.078182,67.7921008 162.392157,68.4200516 C162.705464,69.0480025 162.8531,69.8095598 162.8531,70.6980434 C162.8531,71.7602156 162.66605,72.7355434 162.285272,73.6307074 C161.904493,74.5252033 161.342677,75.3007893 160.595149,75.9554615 C159.846952,76.6094656 158.925067,77.1178385 157.829493,77.4852566 C156.733919,77.8526746 155.464657,78.0323754 154.035067,78.0323754 C153.273509,78.0323754 152.531993,77.9662402 151.810518,77.8259533 C151.089042,77.6923467 150.394288,77.4986172 149.726255,77.2581254 C149.058223,77.0176336 148.443632,76.7303795 147.875805,76.3963631 C147.307977,76.069027 146.812964,75.7082893 146.379411,75.3208303 L147.608591,73.296691 C147.768919,73.0561992 147.949288,72.86915 148.169739,72.7355434 C148.383509,72.6086172 148.657403,72.5418139 148.984071,72.5418139 C149.312075,72.5418139 149.62605,72.6353385 149.919985,72.8223877 C150.213919,73.0094369 150.554616,73.2098467 150.942075,73.4236172 C151.329534,73.6373877 151.783796,73.8377975 152.304862,74.0241787 C152.825259,74.2118959 153.48728,74.3054205 154.2956,74.3054205 C154.92355,74.3054205 155.470669,74.2319369 155.918919,74.0776213 C156.373182,73.9246418 156.7406,73.7309123 157.034534,73.4837402 C157.328468,73.236568 157.542239,72.9559943 157.682526,72.6353385 C157.816132,72.3146828 157.888948,71.9806664 157.888948,71.6332893 C157.888948,71.1189041 157.735968,70.6913631 157.428673,70.364027 C157.121378,70.036691 156.713878,69.7494369 156.199493,69.5022648 C155.69112,69.2611049 155.1106,69.0406541 154.455927,68.8469246 C153.800587,68.6531951 153.132555,68.4400926 152.458509,68.2129615 C151.777116,67.9851623 151.109083,67.7119369 150.460423,67.4046418 C149.806419,67.0973467 149.225231,66.7025393 148.717526,66.2355844 C148.209821,65.7612811 147.802321,65.1800926 147.488345,64.4920189 C147.18105,63.8039451 147.027403,62.9689041 147.027403,61.9995885 C147.027403,61.0984123 147.207772,60.23665 147.561829,59.42165 C147.922567,58.60665 148.443632,57.8918549 149.145067,57.2839451 C149.839821,56.6760352 150.707595,56.1883713 151.750395,55.8202852 C152.792526,55.4535352 153.988305,55.2731664 155.351091,55.2731664 C156.874206,55.2731664 158.257034,55.5270189 159.499575,56.0280434 C160.748796,56.529068 161.784247,57.1904205 162.619288,58.0054205 L161.410149,59.9226746 Z" id="Fill-11" fill="#4484FF" mask="url(#mask-4)"></path>
            <path d="M127.206736,36.2809275 C121.76895,36.2809275 117.353253,31.8585504 117.353253,26.4207635 C117.353253,20.9829766 121.77563,16.5672799 127.206736,16.5672799 C132.644523,16.5672799 137.0669,20.989657 137.0669,26.4207635 C137.06022,31.8585504 132.637843,36.2809275 127.206736,36.2809275 M96.5039496,73.5504766 C92.1283348,73.5504766 88.5677201,69.9891939 88.5677201,65.6142471 C88.5677201,61.2386324 92.1283348,57.6780176 96.5039496,57.6780176 C100.879564,57.6780176 104.440188,61.2386324 104.440188,65.6142471 C104.446859,69.9891939 100.886245,73.5504766 96.5039496,73.5504766 M84.4192365,12.6459275 C84.4192365,8.98510779 87.3986627,6.00568156 91.0594824,6.00568156 C94.720302,6.00568156 97.7064086,8.98510779 97.7064086,12.6459275 C97.7064086,16.3067471 94.7269824,19.2861734 91.0594824,19.2861734 C87.405343,19.2861734 84.4192365,16.3067471 84.4192365,12.6459275 M101.81481,19.1392061 C104.159605,20.0343701 108.915999,21.8447389 111.467884,22.8200668 C112.416491,23.1808045 113.01772,24.1294111 112.930876,25.1381406 C112.890794,25.5590012 112.870753,25.9865422 112.870753,26.4207635 C112.870753,29.7008045 113.986368,32.726993 115.856859,35.1452717 C116.344523,35.7799029 116.351204,36.6550258 115.856859,37.2829766 L103.43145,53.1487553 C102.803499,53.9503947 101.727966,54.304452 100.772679,53.956407 C100.258294,53.7700258 99.7238676,53.609698 99.1760807,53.4961324 C98.1473102,53.2690012 97.4057939,52.367157 97.2989086,51.3250258 L94.5532939,24.5903537 C94.4731299,23.8287963 94.9006709,23.1206816 95.595425,22.8067061 C97.1592898,22.1052717 98.5280889,21.0564602 99.610302,19.7537963 C100.144728,19.0991242 101.019851,18.8385914 101.81481,19.1392061 M127.981655,12.1048209 C122.978089,11.8376078 118.495589,14.1623619 115.736614,17.8432225 C115.101982,18.6849439 113.966327,18.972198 112.977638,18.5980996 L103.351286,14.9305996 C102.62313,14.6500258 102.128786,13.9419111 102.175548,13.1603127 C102.182228,12.9866242 102.188909,12.819616 102.188909,12.6459275 C102.188909,6.35973893 96.9448512,1.2693291 90.5985398,1.52986189 C85.0071053,1.76367336 80.3442365,6.29961598 79.9701381,11.8843701 C79.5960398,17.5158865 83.4372283,22.3390832 88.6418717,23.5014602 C89.422802,23.6751488 90.0173512,24.3097799 90.0975152,25.1047389 L92.8498102,51.9062143 C92.9566955,52.9349848 92.355466,53.8769111 91.4135398,54.2977717 C86.670507,56.4354766 83.5040316,61.4657635 84.1787447,67.1306816 C84.8534578,72.7688783 89.4294824,77.3181816 95.0743594,77.9528127 C102.563007,78.794534 108.929359,72.9358865 108.929359,65.6142471 C108.929359,63.0089193 108.114359,60.5973209 106.738212,58.5999029 C106.217146,57.8450258 106.223827,56.849657 106.784974,56.1275135 L119.404114,40.0219111 C119.878417,39.4140012 120.700097,39.2135914 121.4022,39.5275668 C123.178499,40.3225258 125.142515,40.7627594 127.206736,40.7627594 C135.343376,40.7627594 141.917486,33.9561734 141.529359,25.7326898 C141.181982,18.4711734 135.237159,12.4922799 127.981655,12.1048209" id="Fill-12" fill="#99C3FF" mask="url(#mask-4)"></path>
        </g>
    </g>
</svg>