<?xml version="1.0" encoding="UTF-8"?>
<svg width="48px" height="48px" viewBox="0 0 48 48" version="1.1" xmlns="http://www.w3.org/2000/svg" xmlns:xlink="http://www.w3.org/1999/xlink">
    <!-- Generator: Sketch 64 (93537) - https://sketch.com -->
    <title>loss-taste-blue</title>
    <desc>Created with Sketch.</desc>
    <g id="loss-taste-blue" stroke="none" stroke-width="1" fill="none" fill-rule="evenodd">
        <path d="M33.7452616,8.52301164 L34.8803496,9.00576345 C41.9089134,12.0516411 45.8920465,14.882873 46.8746079,17.7738235 C47.7039133,20.2138551 44.362551,21.6132483 36.0449355,23.454211 L36.044026,28.1566177 C36.044026,34.6975372 30.6517632,40 24.00007,40 C17.3483767,40 11.956114,34.6975372 11.956114,28.1566177 L11.956114,28.1566177 L11.9554968,23.618 L10.7677933,23.3263683 C3.30239647,21.4531656 0.329106438,20.064088 1.12876714,17.7650824 C2.17475226,14.7579001 6.28846358,11.8614173 13.4944325,8.79409427 C15.7450416,7.83610637 18.3107763,7.94551762 20.4618078,9.07631153 L20.781261,9.25358523 L21.9289094,9.92484583 C23.121276,10.6222622 24.5889565,10.6612256 25.8115045,10.0434638 L26.0525915,9.91115567 L27.6766121,8.9466073 C29.5131308,7.85585842 31.7704779,7.69829329 33.7452616,8.52301164 Z M19.8536606,18.9788343 C17.7424955,18.3198983 15.4878385,19.4686613 14.8177431,21.5446681 C14.6931948,21.9305285 14.6298066,22.3329461 14.6298066,22.7377772 L14.6298066,22.7377772 L14.6298066,28.1566177 C14.6298066,33.2454886 18.8250164,37.3708336 24.00007,37.3708336 C29.1751235,37.3708336 33.3703333,33.2454886 33.3703333,28.1566177 L33.3703333,28.1566177 L33.3703333,22.7377772 C33.3703333,20.5597044 31.5747538,18.7940276 29.3597943,18.7940276 C28.9481072,18.7940276 28.5388745,18.8563601 28.1464794,18.9788343 L28.1464794,18.9788343 L25.3384968,19.855 L25.3387519,30.7770543 C25.3387519,31.5030786 24.7402254,32.0916375 24.0019055,32.0916375 C23.3163228,32.0916375 22.7512762,31.5841556 22.6740531,30.9303625 L22.6650592,30.7770543 L22.6644968,19.856 Z M29.2987463,11.0654769 L29.0589117,11.1971351 L27.4348946,12.1616814 C25.4196572,13.3585837 22.9209248,13.4209797 20.8542867,12.3458299 L20.562091,12.1844983 L19.4144427,11.5132377 C17.9390263,10.6502653 16.1319786,10.5363182 14.5565542,11.2069088 C8.56151559,13.7587822 5.00261602,16.1255145 3.89874521,18.0902505 L3.84761009,18.1859765 L3.91198172,18.2284224 C4.14676048,18.3778918 4.47702048,18.5489656 4.89735339,18.7336518 L5.16031863,18.846033 C6.66969037,19.4741127 9.02351107,20.1857285 12.2025369,20.9703201 L12.2693415,20.7492621 L12.3656253,20.4721362 C13.5891146,17.1879593 17.2390263,15.4043276 20.6625373,16.4728723 L20.6625373,16.4728723 L24.0005687,17.5142245 L27.3376027,16.4728723 C27.8607963,16.3095734 28.4019499,16.2104256 28.9487899,16.1772985 L28.9487899,16.1772985 L29.3597943,16.1648612 C32.373527,16.1648612 34.9214196,18.1261445 35.755512,20.8215341 C38.8469838,20.1230403 41.1630832,19.4753879 42.6879483,18.88653 C43.3051262,18.6481941 43.7739901,18.425828 44.0834223,18.2348708 L44.1548641,18.187291 L44.1203178,18.12078 C43.0502495,16.1888657 39.4093693,13.7943757 33.2354943,11.1686054 L32.7001027,10.9429784 C31.5998656,10.4834923 30.353444,10.5321878 29.2987463,11.0654769 Z" id="Line-2" fill="#4484FF" fill-rule="nonzero"></path>
    </g>
</svg>