<?xml version="1.0" encoding="UTF-8"?>
<svg width="48px" height="48px" viewBox="0 0 48 48" version="1.1" xmlns="http://www.w3.org/2000/svg" xmlns:xlink="http://www.w3.org/1999/xlink">
    <!-- Generator: Sketch 64 (93537) - https://sketch.com -->
    <title>Pneumonia-feelin-blue</title>
    <desc>Created with Sketch.</desc>
    <g id="Pneumonia-feelin-blue" stroke="none" stroke-width="1" fill="none" fill-rule="evenodd">
        <path d="M19.4348535,10.9693559 C19.964232,11.095946 20.2907565,11.6277136 20.1641664,12.1570921 C20.0375763,12.6864706 19.5058087,13.0129951 18.9764302,12.886405 C12.7394267,11.3949525 8.69871451,13.2651075 6.53716326,18.5390587 C4.31206427,25.1180422 3.53477297,31.6505103 4.20167778,38.1455089 L4.27581949,38.817272 L4.28261676,38.9321753 C4.28334922,40.044698 4.99129986,40.3907181 7.15305628,39.9090789 L8.25893586,39.6433826 C9.81911961,39.2582481 11.8714993,38.7217708 14.4143589,38.0343134 C18.6210646,36.897039 21.5701476,33.1375234 21.6937362,28.8037961 L21.6977743,28.5203686 L21.697639,24.6332566 C20.7602746,24.8794143 19.8442829,25.2337915 18.9685436,25.696473 L18.6464714,25.8725629 L16.8484549,26.8892091 C16.3746467,27.1571128 15.7733704,26.9901943 15.5054666,26.516386 C15.2566989,26.0764213 15.3828544,25.5265477 15.7815033,25.2357404 L15.8782897,25.1733977 L17.6763061,24.1567515 C22.1240258,21.6418929 27.5462279,21.6059095 32.0186382,24.0401528 L32.3441648,24.2226765 L34.9745165,25.7413108 C35.4458975,26.0134627 35.6074045,26.6162152 35.3352526,27.0875961 C35.0825401,27.525307 34.544769,27.6958307 34.0918199,27.5000579 L33.9889673,27.4483322 L31.3586155,25.9296979 C30.3865046,25.3684494 29.3588875,24.9447525 28.302928,24.6587292 L28.3022257,28.869609 L28.3062638,29.1530364 C28.4298524,33.4867638 31.3789354,37.2462793 35.5856411,38.3835537 C37.9589768,39.0251807 39.9050499,39.5352871 41.4224653,39.9135782 L41.4224653,39.9135782 L42.6180971,40.2055396 C44.959035,40.7629105 45.7166255,40.4323012 45.7173832,39.2814156 L45.7173832,39.2814156 L45.7241805,39.1665124 L45.7983222,38.4947492 C46.465227,31.9997507 45.6879357,25.4672825 43.4628367,18.8882991 C41.3012855,13.6143479 37.2605733,11.7441929 31.0235698,13.2356454 C30.4941913,13.3622355 29.9624237,13.035711 29.8358336,12.5063325 C29.7092435,11.976954 30.035768,11.4451864 30.5651465,11.3185963 C37.7163839,9.60852333 42.7437231,11.935317 45.3084892,18.1990942 L45.3084892,18.1990942 L45.5446311,18.9124797 C47.6979059,25.5680886 48.4313021,32.1497845 47.7590852,38.6963334 L47.7590852,38.6963334 L47.688395,39.3458677 L47.6847655,39.4744612 C47.5851062,42.0531296 45.4877425,42.9149936 42.1615466,42.1230356 C41.1477927,41.8816636 39.8712814,41.5592328 38.331336,41.1556004 L38.331336,41.1556004 L35.0712258,40.2863427 C29.9134388,38.8919454 26.3311273,34.212559 26.3311273,28.869609 L26.3311273,28.869609 L26.3311273,24.3481449 L26.3346264,24.2878854 C25.4487956,24.1918586 24.5551109,24.1884156 23.6685403,24.2776237 L23.6688727,28.5203686 C23.6688727,33.8633187 20.0865612,38.5427051 14.9287742,39.9371024 L12.0951811,40.6942652 C10.3629831,41.1506988 8.9443667,41.5104803 7.83845336,41.7737952 C4.51225751,42.5657533 2.41489378,41.7038892 2.3152345,39.1252208 L2.31247828,39.0038821 L2.24091478,38.347093 C1.56869794,31.8005441 2.30209413,25.2188482 4.45536894,18.5632393 L4.69151082,17.8498538 C7.25627695,11.5860766 12.2836161,9.25928298 19.4348535,10.9693559 Z M39.2195496,34.2845557 C39.9210493,34.2845557 40.4897272,34.8532336 40.4897272,35.5547333 C40.4897272,36.2562331 39.9210493,36.8249109 39.2195496,36.8249109 C38.5180499,36.8249109 37.949372,36.2562331 37.949372,35.5547333 C37.949372,34.8532336 38.5180499,34.2845557 39.2195496,34.2845557 Z M13.5658186,33.5529951 C13.9698484,33.5529951 14.2973792,33.8805259 14.2973792,34.2845557 C14.2973792,34.6885855 13.9698484,35.0161163 13.5658186,35.0161163 C13.1617889,35.0161163 12.834258,34.6885855 12.834258,34.2845557 C12.834258,33.8805259 13.1617889,33.5529951 13.5658186,33.5529951 Z M7.46796368,30.0410642 C7.87199345,30.0410642 8.19952429,30.3685951 8.19952429,30.7726248 C8.19952429,31.1766546 7.87199345,31.5041854 7.46796368,31.5041854 C7.06393391,31.5041854 6.73640307,31.1766546 6.73640307,30.7726248 C6.73640307,30.3685951 7.06393391,30.0410642 7.46796368,30.0410642 Z M31.8034084,29.3095036 C32.2074382,29.3095036 32.534969,29.6370345 32.534969,30.0410642 C32.534969,30.445094 32.2074382,30.7726248 31.8034084,30.7726248 C31.3993787,30.7726248 31.0718478,30.445094 31.0718478,30.0410642 C31.0718478,29.6370345 31.3993787,29.3095036 31.8034084,29.3095036 Z M39.2195496,29.1351767 C39.6235794,29.1351767 39.9511102,29.4627076 39.9511102,29.8667374 C39.9511102,30.2707671 39.6235794,30.598298 39.2195496,30.598298 C38.8155198,30.598298 38.487989,30.2707671 38.487989,29.8667374 C38.487989,29.4627076 38.8155198,29.1351767 39.2195496,29.1351767 Z M12.2628109,26.5948215 C12.9643107,26.5948215 13.5329886,27.1634994 13.5329886,27.8649991 C13.5329886,28.5664989 12.9643107,29.1351767 12.2628109,29.1351767 C11.5613112,29.1351767 10.9926333,28.5664989 10.9926333,27.8649991 C10.9926333,27.1634994 11.5613112,26.5948215 12.2628109,26.5948215 Z M26.5393518,5.59408904 L26.6544546,5.59644465 C27.1970998,5.63890469 27.60258,6.11322619 27.5601199,6.65587137 L27.5601199,6.65587137 L27.2747659,10.3027339 L27.2561983,10.5880283 C26.9900284,15.7143179 30.3857032,20.3364622 35.3893175,21.5959834 C35.9171551,21.7288519 36.2373409,22.2644601 36.1044724,22.7922978 C35.9716039,23.3201354 35.4359957,23.6403212 34.908158,23.5074527 C28.8799132,21.9900091 24.8247529,16.3463285 25.3096739,10.1489725 L25.3096739,10.1489725 L25.5950279,6.50210993 L25.6106041,6.38804154 C25.7055968,5.90382443 26.1505698,5.55701746 26.6544546,5.59644465 Z M23.7716031,6.38804154 L23.7871793,6.50210993 L24.0725333,10.1489725 C24.5574543,16.3463285 20.502294,21.9900091 14.4740492,23.5074527 C13.9462115,23.6403212 13.4106033,23.3201354 13.2777348,22.7922978 C13.1448663,22.2644601 13.4650521,21.7288519 13.9928898,21.5959834 C18.996504,20.3364622 22.3921788,15.7143179 22.1260089,10.5880283 L22.1074413,10.3027339 L21.8220873,6.65587137 C21.7796272,6.11322619 22.1851074,5.63890469 22.7277526,5.59644465 C23.2316374,5.55701746 23.6766105,5.90382443 23.7716031,6.38804154 Z M40.4897272,20.2043064 C41.191227,20.2043064 41.7599049,20.7729843 41.7599049,21.474484 C41.7599049,22.1759838 41.191227,22.7446617 40.4897272,22.7446617 C39.7882275,22.7446617 39.2195496,22.1759838 39.2195496,21.474484 C39.2195496,20.7729843 39.7882275,20.2043064 40.4897272,20.2043064 Z M9.96259452,20.0113628 C10.3666243,20.0113628 10.6941551,20.3388937 10.6941551,20.7429234 C10.6941551,21.1469532 10.3666243,21.474484 9.96259452,21.474484 C9.55856475,21.474484 9.2310339,21.1469532 9.2310339,20.7429234 C9.2310339,20.3388937 9.55856475,20.0113628 9.96259452,20.0113628 Z" id="Oval-2" fill="#4484FF"></path>
    </g>
</svg>