<?xml version="1.0" encoding="UTF-8"?>
<svg width="48px" height="48px" viewBox="0 0 48 48" version="1.1" xmlns="http://www.w3.org/2000/svg" xmlns:xlink="http://www.w3.org/1999/xlink">
    <!-- Generator: Sketch 64 (93537) - https://sketch.com -->
    <title>Sore-throat-grey</title>
    <desc>Created with Sketch.</desc>
    <g id="Sore-throat-grey" stroke="none" stroke-width="1" fill="none" fill-rule="evenodd">
        <path d="M36.1528861,5.84517607 L36.500983,6.14672957 L36.6022348,6.24776208 C40.4515423,10.5833843 41.8004542,15.1587075 40.5546027,19.8638035 C39.4136929,24.1725753 37.7501431,27.4307866 35.5345697,29.6225112 L35.323198,29.8239024 L35.2013823,29.9846553 C34.3380669,31.1846064 34.1041549,32.6754119 34.5273022,34.5412648 L34.6088015,34.8744433 C35.2869105,37.4623662 35.6214775,40.7350179 35.6214775,44.7020638 C35.6214775,45.3560852 35.0912884,45.8862743 34.437267,45.8862743 C33.7832456,45.8862743 33.2530564,45.3560852 33.2530564,44.7020638 C33.2530564,41.1444109 32.9742305,38.2077306 32.4240609,35.9000808 L32.3177262,35.4747698 C31.6106278,32.776212 31.9330298,30.4324712 33.318722,28.5464139 L33.5142739,28.2920708 L33.632085,28.1656333 C35.6247857,26.3178974 37.1802471,23.3545737 38.265084,19.2575671 C39.2624121,15.4910474 38.2488697,11.8298349 35.1386623,8.17398842 L34.8791191,7.87574452 L34.5868443,7.62252818 C30.426937,4.10673688 25.7798064,3.06688071 20.5197748,4.47477101 L20.0800173,4.59776068 C16.5090815,5.6390941 14.3696476,8.04146459 13.3502204,11.4310713 C12.6423019,13.7849084 12.5655959,16.4971077 12.8610188,18.0686771 C13.0598752,19.1265383 12.6140652,20.1811885 11.6954814,21.4642922 C11.5437254,21.6762693 11.3811289,21.8912435 11.1985968,22.1224415 L10.6766196,22.7642071 L10.0474962,23.5160764 C9.88756294,23.7080975 9.75913377,23.8654275 9.65183046,24.0016626 L9.52517169,24.1633761 C9.78395014,24.2519683 10.1351215,24.334167 10.5864731,24.3965348 L10.8205016,24.4259911 C11.5789732,24.5125248 12.0461331,25.2763953 11.8098336,25.9774914 L11.7571832,26.1080305 L10.9166191,27.886534 L11.1516858,28.0374541 C11.6800699,28.3766637 11.8455398,29.062075 11.5526062,29.5993899 L11.4768253,29.7205317 L11.1487243,30.1803498 L11.8918407,30.9260493 C12.2049088,31.239857 12.3137524,31.6985771 12.1842686,32.1142533 L12.1322336,32.25096 C11.590217,33.4477952 11.7142255,34.2212688 12.475314,34.8846845 C13.1977907,35.5144436 15.0372523,35.3501172 17.9768339,34.0866364 C18.7149762,33.7693706 19.5322485,34.2630252 19.6207783,35.0355012 L19.628672,35.1746066 L19.628672,44.7020638 C19.628672,45.3560852 19.0984829,45.8862743 18.4444614,45.8862743 C17.8371558,45.8862743 17.336624,45.4291215 17.268218,44.8401678 L17.2602509,44.7020638 L17.2592506,36.9042972 L17.147439,36.9441693 C14.4630172,37.8496386 12.4452839,37.855882 11.0856042,36.8067043 L10.9190709,36.6700488 C9.59202156,35.5133037 9.1589533,33.9988777 9.60311566,32.3080807 L9.67438222,32.0573235 L8.76586261,31.1460987 C8.39195262,30.7713055 8.31586729,30.1993732 8.56368718,29.7441889 L8.63932472,29.6231782 L8.82648748,29.3585077 L8.76301117,29.3184539 C8.30418591,29.0238994 8.11090751,28.4592539 8.27743492,27.952873 L8.33184311,27.8164603 L8.96740853,26.4678498 L8.80918705,26.4189242 C8.14612121,26.1951053 7.63212469,25.8800756 7.26864032,25.4488313 L7.13939176,25.2816183 C6.60260117,24.5226629 6.80358392,23.9101353 7.42327849,23.0289711 L7.55270569,22.8490335 C7.65771738,22.7058991 7.77339939,22.5566039 7.91291653,22.3835008 L8.97635169,21.1043406 L9.33316382,20.6630529 C9.49668177,20.4561305 9.63959759,20.2673336 9.76969643,20.0856079 C10.3350644,19.295886 10.5750732,18.7280985 10.5333661,18.5062283 C10.1712099,16.5796562 10.2586752,13.4870235 11.0821538,10.7489482 C12.3187243,6.63733774 15.017371,3.6070271 19.4169707,2.32404403 C25.637483,0.510058091 31.2620332,1.69406645 36.1528861,5.84517607 Z M18.4779944,29.5753788 C21.0148048,29.5753788 23.085851,31.569552 23.2090395,34.0758048 L23.2148366,34.312221 L23.2148366,37.7886841 C23.2148366,38.0649363 23.1202437,38.3190951 22.9616811,38.5205375 C23.2756516,38.450597 24.7988869,38.1172334 27.5293336,37.5196687 L27.5293336,37.5196687 L27.0369616,35.9091925 L31.7238736,34.4762597 C32.2279526,36.1250279 32.4799921,36.949412 32.4799921,36.949412 C32.4799921,36.949412 31.2242391,37.0834886 28.7127332,37.3516418 L28.7127332,37.3516418 L29.3247062,39.3533152 C25.4105291,38.8539421 23.2841789,38.582661 22.9456554,38.539472 C22.728824,38.8043191 22.3994115,38.9728946 22.030626,38.9728946 C21.4233204,38.9728946 20.9227886,38.5157418 20.8543826,37.926788 L20.8464155,37.7886841 L20.8464155,34.312221 C20.8464155,33.0636346 19.8802444,32.0407096 18.6547525,31.9502962 L18.4779944,31.9437999 L14.7514765,31.9437999 C14.0974551,31.9437999 13.567266,31.4136108 13.567266,30.7595894 C13.567266,30.1522838 14.0244189,29.6517519 14.6133726,29.5833459 L14.7514765,29.5753788 L18.4779944,29.5753788 Z M27.3123216,26.2046297 C28.8346145,27.0140472 29.595761,27.418756 29.595761,27.418756 C29.595761,27.418756 28.802616,28.4015139 27.216326,30.3670297 L27.216326,30.3670297 L29.0644531,31.3496963 C25.6481366,33.9929314 23.9399784,35.314549 23.9399784,35.314549 C23.9399784,35.314549 24.7927686,33.9839102 26.4983491,31.3226326 L26.4983491,31.3226326 L25.0114109,30.5320135 Z" id="Path-4-Copy-3" fill="#4484FF" fill-rule="nonzero"></path>
    </g>
</svg>